<svg width="256" height="256" xmlns="http://www.w3.org/2000/svg">

 <g class="currentLayer">
  <title>Layer 1</title>
  <path fill="#2c2c2c" stroke="#2c2c2c" id="svg_1" d="m224.44022,1.69925l-191.7594,0a30.96605,30.85657 0 0 0 -30.92893,30.81959l0,191.08147a30.96605,30.85657 0 0 0 30.92893,30.81959l191.7594,0a30.96605,30.85657 0 0 0 30.92893,-30.81959l0,-191.08147a30.96605,30.85657 0 0 0 -30.92893,-30.81959zm18.55736,221.90106a18.55736,18.49175 0 0 1 -18.55736,18.49175l-191.7594,0a18.55736,18.49175 0 0 1 -18.55736,-18.49175l0,-191.08147a18.55736,18.49175 0 0 1 18.55736,-18.49176l191.7594,0a18.55736,18.49175 0 0 1 18.55736,18.49176l0,191.08147z"/>
  <g stroke="#2c2c2c" transform="matrix(0.5393325048398953,0,0,0.5562594900890252,-1012.8296193209273,-1052.3517436141071) " id="svg_13" class="currentLayer">
   <title fill="#2c2c2c" stroke="#2c2c2c" transform="translate(0,-0.5992375016212463) translate(0,-0.5992375016212463) translate(-0.6180446147918701,0) translate(0.6180446147918701,0) translate(-0.6180446147918701,0) translate(-0.6180446147918701,0) translate(-0.6180446147918701,0) translate(-0.6180446147918701,0) translate(-0.6180446147918701,0) translate(0,-0.5992375016212463) translate(0,-0.5992375016212463) translate(0,-0.5992375016212463) translate(0,-0.5992375016212463) translate(0,-0.5992375016212463) translate(0,-0.5992375016212463) translate(0,-0.5992375016212463) translate(-9.888713836669922,-4.793900012969971) translate(-6.180446147918701,26.366451263427734) translate(22.867650985717773,-20.374074935913086) translate(-3.7082679271698,1.1984750032424927) translate(-0.6180446147918701,0) translate(-0.6180446147918701,0) translate(0,0.6180446147918701) translate(0,0.6180446147918701) translate(0,0.6180446147918701) translate(0,0.6180446147918701) translate(0,0.6180446147918701) translate(0,0.6180446147918701) translate(0,0.6180446147918701) translate(-0.6180446147918701,0) translate(-0.6180446147918701,0) translate(-0.6180446147918701,0) translate(-0.6180446147918701,0) translate(-0.6180446147918701,0) translate(-0.6180446147918701,0) translate(-0.6180446147918701,0) translate(-0.6180446147918701,0) translate(-0.6180446147918701,0) translate(-0.6180446147918701,0) translate(-17.30525016784668,84.67211151123047) translate(-8.65262508392334,-46.97139358520508) translate(1975.66943359375,0) translate(0,2020.3275146484375) ">Layer 1</title>
   <g stroke="#2c2c2c" id="svg_14">
    <path fill="#2c2c2c" stroke="#2c2c2c" id="svg_10" d="m1985.001593,2176.886349c2.3164,5.6211 7.79296,9.28907 13.87109,9.28907s11.55469,-3.66797 13.87109,-9.28907l38.2461,-92.875c3.15234,-7.66015 -0.4961,-16.42578 -8.15625,-19.58203c-7.66407,-3.15625 -16.42969,0.5 -19.58203,8.16016l-24.37891,59.19531l-24.37891,-59.19531c-3.15625,-7.66016 -11.92187,-11.3125 -19.58203,-8.16016c-7.66015,3.15625 -11.3125,11.92188 -8.15625,19.58203l38.2461,92.875zm0,0"/>
    <path fill="#2c2c2c" stroke="#2c2c2c" id="svg_9" d="m2078.368773,2186.175419c8.28516,0 15,-6.71485 15,-15l0,-31.4375l38.27735,0c21.07422,0 38.21875,-17.14454 38.21875,-38.21875c0,-21.07422 -17.14453,-38.21875 -38.21875,-38.21875l-53.27735,0c-8.28515,0 -15,6.71484 -15,15l0,92.875c0,8.28515 6.71485,15 15,15zm15,-92.875l38.27735,0c4.53125,0 8.21875,3.6875 8.21875,8.21875s-3.6875,8.21875 -8.21875,8.21875l-38.27735,0l0,-16.4375zm0,0"/>
    <path fill="#2c2c2c" stroke="#2c2c2c" id="svg_8" d="m2196.110963,2186.175419c8.28516,0 15,-6.71485 15,-15l0,-51.07032l49.91797,60.60547c2.90625,3.52735 7.18359,5.46485 11.58203,5.46485c1.69141,0 3.40625,-0.28516 5.0625,-0.87891c5.96094,-2.14063 9.9375,-7.78906 9.9375,-14.12109l0,-92.875c0,-8.28516 -6.71875,-15 -15,-15c-8.28516,0 -15,6.71484 -15,15l0,51.07031l-49.91797,-60.60547c-4.02344,-4.88672 -10.6875,-6.72266 -16.64453,-4.58594c-5.96094,2.14063 -9.9375,7.78906 -9.9375,14.1211l0,92.875c0,8.28515 6.71875,15 15,15zm0,0"/>
   </g>
  </g>
 </g>
 <STYLE xmlns="http://www.w3.org/1999/xhtml">@import url(http://fonts.googleapis.com/css?family=Abel);</STYLE>
 <g>
  <title>Layer 2</title>
  <rect fill="none" y="0" x="0" height="100%" width="100%" id="backgroundrect"/>
 </g>
 <g>
  <title>background</title>
  <rect fill="none" id="canvas_background" height="795" width="1022" y="-1" x="-1"/>
 </g>
</svg>